<svg xmlns="http://www.w3.org/2000/svg" viewBox="0 0 32 32" width="32" height="32">
  <rect width="32" height="32" rx="5" fill="#0a0a0a"/>
  <path fill="#c8102e" d="M1 32V22.5C6 20 11 19 16 19s10 1 15 3.5V32"/>
  <path fill="#f0f0f0" d="M12 19h8v1.2h-8z"/>
  <ellipse cx="16" cy="14.5" rx="8" ry="9" fill="#8b5228"/>
  <path fill="#0b0604" d="M8 11.5C8 6 11.5 3 16 3s8 3 8 8.5c-1.8-2.8-4.5-4-8-4s-6.2 1.2-8 4"/>
  <path fill="#0b0604" d="M7.5 13.2h3.2v1.4H7.5zm13.8 0H24v1.4h-2.7z"/>
  <ellipse cx="12" cy="14.8" rx="1.15" ry="1.35" fill="#e8dccf"/>
  <ellipse cx="20" cy="14.8" rx="1.15" ry="1.35" fill="#e8dccf"/>
  <circle cx="12" cy="14.8" r="0.5" fill="#111"/>
  <circle cx="20" cy="14.8" r="0.5" fill="#111"/>
  <path fill="none" stroke="#3d2418" stroke-width="0.85" stroke-linecap="round" d="M13.2 19q2.8 1.4 5.6 0"/>
  <path fill="#00000018" d="M16 21c-2.5 0-4.5-.8-6-2.2V23c2 1.2 4 1.8 6 1.8s4-.6 6-1.8v-4.2c-1.5 1.4-3.5 2.2-6 2.2z"/>
</svg>
